HIERARCHY
ROOT pelvis
{
  OFFSET 0 100 0
  CHANNELS 6 Xposition Yposition Zposition Zrotation Xrotation Yrotation
  JOINT pelvis_right_femur
  {
    OFFSET -10.78128 -3.44521 -0.5502486
    CHANNELS 3 Zrotation Xrotation Yrotation
    JOINT right_femur_tibia
    {
      OFFSET -0.8047443 -44.0398 -0.1307829
      CHANNELS 3 Zrotation Xrotation Yrotation
      JOINT right_tibia_foot
      {
        OFFSET 3.006224 -47.83518 -5
        CHANNELS 3 Zrotation Xrotation Yrotation
        End Site
        {
          OFFSET 0 -5 15
        }
      }
    }
  }
  JOINT pelvis_left_femur
  {
    OFFSET 10.78128 -3.44521 -0.5502486
    CHANNELS 3 Zrotation Xrotation Yrotation
    JOINT left_femur_tibia
    {
      OFFSET 0.8047443 -44.0398 -0.1307829
      CHANNELS 3 Zrotation Xrotation Yrotation
      JOINT left_tibia_foot
      {
        OFFSET -4.370144 -48.10324 -4.275266
        CHANNELS 3 Zrotation Xrotation Yrotation
        End Site
        {
          OFFSET 0 -5 15
        }
      }
    }
  }
  JOINT pelvis_spine1
  {
    OFFSET 0 6.468898 -3.129235
    CHANNELS 3 Zrotation Xrotation Yrotation
    JOINT spine1
    {
      OFFSET 0 23.15396 4.99043
      CHANNELS 3 Zrotation Xrotation Yrotation
      JOINT spine2
      {
        OFFSET 0 20.79997 -5.064912
        CHANNELS 3 Zrotation Xrotation Yrotation
        JOINT neck
        {
          OFFSET 0 14.38658 9.616178
          CHANNELS 3 Zrotation Xrotation Yrotation
          End Site
          {
            OFFSET 0 20 0
          }
        }
      }
      JOINT right_manubrium
      {
        OFFSET -5.722621 16.35077 3.967754
        CHANNELS 3 Zrotation Xrotation Yrotation
        JOINT right_clavicle
        {
          OFFSET -13.16364 1.694482 -4.693211
          CHANNELS 3 Zrotation Xrotation Yrotation
          JOINT right_humerus
          {
            OFFSET -28.5034 -0.3100689 -2.792744
            CHANNELS 3 Zrotation Xrotation Yrotation
            JOINT right_radius
            {
              OFFSET -25.15693 0.02248979 -1.271978
              CHANNELS 3 Zrotation Xrotation Yrotation
              End Site
              {
                OFFSET -15 0 0
              }
            }
          }
        }
      }
      JOINT left_manubrium
      {
        OFFSET 5.722621 16.35077 3.967754
        CHANNELS 3 Zrotation Xrotation Yrotation
        JOINT left_clavicle
        {
          OFFSET 13.16364 1.694482 -4.693211
          CHANNELS 3 Zrotation Xrotation Yrotation
          JOINT left_humerus
          {
            OFFSET 29.39168 -1.063119 -2.237045
            CHANNELS 3 Zrotation Xrotation Yrotation
            JOINT left_radius
            {
              OFFSET 24.59957 -0.9528479 0.9047498
              CHANNELS 3 Zrotation Xrotation Yrotation
              End Site
              {
                OFFSET 15 -0 -0
              }
            }
          }
        }
      }
    }
  }
}
MOTION
Frames: 6
Frame Time: 0.0416666666667
0 103.5113 0 0.7235139 2.030893 0.5583206 2.579156 -15.07294 6.872789 -2.445977e-09 30.74608 4.737476e-09 -3.083685 -14.57789 -1.502015 -6.943123 4.442148 -20.16915 3.228983e-09 -0.3976132 -1.065446e-08 3.025362 -19.12226 21.8446 -4.096597 -2.459972 4.862103 2.480874 8.331222 -7.581608 0.5911615 21.33381 8.246518 3.721929 -24.3169 9.436391 7.261745 -19.30697 11.64484 83.91741 39.07071 -17.21947 1.957148e-09 -5.990802e-10 17.86036 -10.83835 10.58768 7.918833 5.931577 -18.81008 -0.4634146 -95.73859 30.45826 24.14081 -3.073044e-09 -1.344479e-09 -17.97458 1.295738 13.46304 13.1885
0.6640802 102.9196 2.766005 0.715601 1.996757 1.192918 2.526623 -16.57246 6.730913 -2.402179e-09 31.44222 4.551134e-09 -3.139593 -13.93093 -1.701979 -7.020999 6.051439 -20.3911 3.263177e-09 -0.9152087 -1.172877e-08 3.129522 -19.70913 21.83944 -4.160884 -2.467158 4.631209 2.522419 8.32872 -7.729324 0.6061532 21.43683 8.325992 3.756677 -24.38145 9.54542 7.243885 -19.0948 11.60671 84.72284 38.96549 -17.95587 1.82542e-09 -5.605435e-10 17.39444 -10.80893 10.54299 7.797098 6.047335 -19.04666 -0.5814869 -95.53243 30.54468 23.40947 -2.832342e-09 -1.176798e-09 -18.49943 1.478201 13.58219 12.97625
1.310612 102.3413 5.544317 0.6721354 1.996926 1.853481 2.596633 -18.29844 6.584001 -2.439528e-09 31.41537 4.453253e-09 -3.2624 -13.33822 -1.923467 -7.029597 7.77775 -20.49731 3.085792e-09 -0.7061584 -1.231927e-08 3.155688 -20.18596 21.67165 -4.165527 -2.470553 4.389496 2.600361 8.340314 -7.918367 0.6146077 21.49077 8.37712 3.782808 -24.43517 9.609987 7.205767 -18.80902 11.56965 85.50946 38.84432 -18.84236 1.699154e-09 -5.348902e-10 16.73549 -10.67943 10.5078 7.574034 6.163116 -19.36866 -0.7191523 -95.05827 30.5853 22.45782 -2.684769e-09 -9.737354e-10 -19.2569 1.737406 13.69969 12.64499
1.920141 101.7834 8.340113 0.5903427 2.047219 2.509665 2.799912 -20.07513 6.464713 -2.570791e-09 30.58544 4.477125e-09 -3.444453 -12.89731 -2.137031 -6.968547 9.419556 -20.47765 2.70141e-09 0.2645534 -1.229708e-08 3.098011 -20.48893 21.35114 -4.105472 -2.472551 4.168568 2.712086 8.365308 -8.133409 0.6134446 21.48428 8.394248 3.798848 -24.48095 9.620812 7.15948 -18.48145 11.54233 86.19164 38.74186 -19.79705 1.598668e-09 -5.280286e-10 15.95226 -10.44363 10.48828 7.263481 6.2671 -19.74867 -0.8556088 -94.37557 30.57128 21.39899 -2.666045e-09 -7.573526e-10 -20.1852 2.050419 13.80491 12.22712
2.472489 101.2512 11.16267 0.4759346 2.128619 3.138098 3.119052 -21.99828 6.36344 -2.774668e-09 29.09932 4.584421e-09 -3.684912 -12.5366 -2.360923 -6.854295 11.10215 -20.35991 2.124661e-09 1.895191 -1.179362e-08 2.968519 -20.67734 20.89394 -3.991732 -2.472786 3.949337 2.855803 8.405019 -8.38211 0.605521 21.43757 8.386457 3.808143 -24.52385 9.592058 7.100442 -18.1042 11.52285 86.86429 38.63564 -20.87407 1.509094e-09 -5.339571e-10 15.02442 -10.12339 10.48044 6.871153 6.368197 -20.20123 -1.003586 -93.50989 30.50202 20.19496 -2.737864e-09 -5.137364e-10 -21.30435 2.424424 13.90658 11.7174
2.958133 100.7481 14.01452 0.3376954 2.235801 3.714495 3.522036 -23.72491 6.303066 -3.021234e-09 27.05371 4.766127e-09 -3.949978 -12.33753 -2.552672 -6.695174 12.50802 -20.12849 1.387502e-09 4.028114 -1.076621e-08 2.772326 -20.67201 20.33687 -3.830094 -2.469458 3.77089 3.009879 8.44791 -8.619009 0.5911628 21.33097 8.342606 3.802479 -24.53679 9.510755 7.031236 -17.72242 11.50612 87.30537 38.54138 -21.85473 1.44944e-09 -5.554124e-10 14.08142 -9.745655 10.47946 6.443508 6.441761 -20.64111 -1.136524 -92.49463 30.37121 19.00509 -2.908203e-09 -2.801052e-10 -22.43191 2.802448 13.97336 11.18115
